<svg width="99" height="39" viewBox="0 0 99 39" fill="none" xmlns="http://www.w3.org/2000/svg">
<path d="M2.02273 31V7.72727H11.2045C12.9621 7.72727 14.4621 8.04167 15.7045 8.67045C16.9545 9.29167 17.9053 10.1742 18.5568 11.3182C19.2159 12.4545 19.5455 13.7917 19.5455 15.3295C19.5455 16.875 19.2121 18.2045 18.5455 19.3182C17.8788 20.4242 16.9129 21.2727 15.6477 21.8636C14.3902 22.4545 12.8674 22.75 11.0795 22.75H4.93182V18.7955H10.2841C11.2235 18.7955 12.0038 18.6667 12.625 18.4091C13.2462 18.1515 13.7083 17.7652 14.0114 17.25C14.322 16.7348 14.4773 16.0947 14.4773 15.3295C14.4773 14.5568 14.322 13.9053 14.0114 13.375C13.7083 12.8447 13.2424 12.4432 12.6136 12.1705C11.9924 11.8902 11.2083 11.75 10.2614 11.75H6.94318V31H2.02273ZM14.5909 20.4091L20.375 31H14.9432L9.28409 20.4091H14.5909ZM30.6051 31.3409C28.8097 31.3409 27.2642 30.9773 25.9688 30.25C24.6809 29.5152 23.6884 28.4773 22.9915 27.1364C22.2945 25.7879 21.946 24.1932 21.946 22.3523C21.946 20.5568 22.2945 18.9811 22.9915 17.625C23.6884 16.2689 24.6695 15.2121 25.9347 14.4545C27.2074 13.697 28.6998 13.3182 30.4119 13.3182C31.5634 13.3182 32.6354 13.5038 33.6278 13.875C34.6278 14.2386 35.4991 14.7879 36.2415 15.5227C36.9915 16.2576 37.5748 17.1818 37.9915 18.2955C38.4081 19.4015 38.6165 20.697 38.6165 22.1818V23.5114H23.8778V20.5114H34.0597C34.0597 19.8144 33.9081 19.197 33.6051 18.6591C33.3021 18.1212 32.8816 17.7008 32.3438 17.3977C31.8134 17.0871 31.196 16.9318 30.4915 16.9318C29.7566 16.9318 29.1051 17.1023 28.5369 17.4432C27.9763 17.7765 27.5369 18.2273 27.2188 18.7955C26.9006 19.3561 26.7377 19.9811 26.7301 20.6705V23.5227C26.7301 24.3864 26.8892 25.1326 27.2074 25.7614C27.5331 26.3902 27.9915 26.875 28.5824 27.2159C29.1733 27.5568 29.8741 27.7273 30.6847 27.7273C31.2225 27.7273 31.715 27.6515 32.1619 27.5C32.6089 27.3485 32.9915 27.1212 33.3097 26.8182C33.6278 26.5152 33.8703 26.1439 34.0369 25.7045L38.5142 26C38.2869 27.0758 37.821 28.0152 37.1165 28.8182C36.4195 29.6136 35.518 30.2348 34.4119 30.6818C33.3134 31.1212 32.0445 31.3409 30.6051 31.3409ZM46.7528 31.3295C45.6392 31.3295 44.6468 31.1364 43.7756 30.75C42.9044 30.3561 42.215 29.7765 41.7074 29.0114C41.2074 28.2386 40.9574 27.2765 40.9574 26.125C40.9574 25.1553 41.1354 24.3409 41.4915 23.6818C41.8475 23.0227 42.3324 22.4924 42.946 22.0909C43.5597 21.6894 44.2566 21.3864 45.0369 21.1818C45.8248 20.9773 46.6506 20.8333 47.5142 20.75C48.5294 20.6439 49.3475 20.5455 49.9688 20.4545C50.59 20.3561 51.0407 20.2121 51.321 20.0227C51.6013 19.8333 51.7415 19.553 51.7415 19.1818V19.1136C51.7415 18.3939 51.5142 17.8371 51.0597 17.4432C50.6127 17.0492 49.9763 16.8523 49.1506 16.8523C48.2794 16.8523 47.5862 17.0455 47.071 17.4318C46.5559 17.8106 46.215 18.2879 46.0483 18.8636L41.571 18.5C41.7983 17.4394 42.2453 16.5227 42.9119 15.75C43.5786 14.9697 44.4384 14.3712 45.4915 13.9545C46.5521 13.5303 47.7794 13.3182 49.1733 13.3182C50.143 13.3182 51.071 13.4318 51.9574 13.6591C52.8513 13.8864 53.643 14.2386 54.3324 14.7159C55.0294 15.1932 55.5786 15.8068 55.9801 16.5568C56.3816 17.2992 56.5824 18.1894 56.5824 19.2273V31H51.9915V28.5795H51.8551C51.5748 29.125 51.1998 29.6061 50.7301 30.0227C50.2604 30.4318 49.696 30.7538 49.0369 30.9886C48.3778 31.2159 47.6165 31.3295 46.7528 31.3295ZM48.1392 27.9886C48.8513 27.9886 49.4801 27.8485 50.0256 27.5682C50.571 27.2803 50.9991 26.8939 51.3097 26.4091C51.6203 25.9242 51.7756 25.375 51.7756 24.7614V22.9091C51.6241 23.0076 51.4157 23.0985 51.1506 23.1818C50.893 23.2576 50.6013 23.3295 50.2756 23.3977C49.9498 23.4583 49.6241 23.5152 49.2983 23.5682C48.9725 23.6136 48.6771 23.6553 48.4119 23.6932C47.8438 23.7765 47.3475 23.9091 46.9233 24.0909C46.4991 24.2727 46.1695 24.5189 45.9347 24.8295C45.6998 25.1326 45.5824 25.5114 45.5824 25.9659C45.5824 26.625 45.821 27.1288 46.2983 27.4773C46.7831 27.8182 47.3968 27.9886 48.1392 27.9886ZM65.179 7.72727V31H60.3381V7.72727H65.179ZM78.4432 13.5455V17.1818H67.6705V13.5455H78.4432ZM70.1364 31V12.2841C70.1364 11.0189 70.3826 9.9697 70.875 9.13636C71.375 8.30303 72.0568 7.67803 72.9205 7.26136C73.7841 6.8447 74.7652 6.63636 75.8636 6.63636C76.6061 6.63636 77.2841 6.69318 77.8977 6.80682C78.5189 6.92045 78.9811 7.02273 79.2841 7.11364L78.4205 10.75C78.2311 10.6894 77.9962 10.6326 77.7159 10.5795C77.4432 10.5265 77.1629 10.5 76.875 10.5C76.1629 10.5 75.6667 10.6667 75.3864 11C75.1061 11.3258 74.9659 11.7841 74.9659 12.375V31H70.1364ZM84.3892 37.5455C83.7756 37.5455 83.1998 37.4962 82.6619 37.3977C82.1316 37.3068 81.6922 37.1894 81.3438 37.0455L82.4347 33.4318C83.0028 33.6061 83.5142 33.7008 83.9688 33.7159C84.4309 33.7311 84.8286 33.625 85.1619 33.3977C85.5028 33.1705 85.7794 32.7841 85.9915 32.2386L86.2756 31.5L80.0142 13.5455H85.1051L88.7188 26.3636H88.9006L92.5483 13.5455H97.6733L90.8892 32.8864C90.5634 33.8258 90.1203 34.6439 89.5597 35.3409C89.0066 36.0455 88.3059 36.5871 87.4574 36.9659C86.6089 37.3523 85.5862 37.5455 84.3892 37.5455Z" fill="white"/>
</svg>
