<svg width="85" height="30" viewBox="0 0 85 30" fill="none" xmlns="http://www.w3.org/2000/svg">
<path d="M0.896307 23V1.18182H9.50426C11.152 1.18182 12.5582 1.47656 13.723 2.06605C14.8949 2.64844 15.7862 3.47585 16.397 4.5483C17.0149 5.61364 17.3239 6.86719 17.3239 8.30895C17.3239 9.75781 17.0114 11.0043 16.3864 12.0483C15.7614 13.0852 14.8558 13.8807 13.6697 14.4347C12.4908 14.9886 11.0632 15.2656 9.38707 15.2656H3.62358V11.5582H8.64134C9.52202 11.5582 10.2536 11.4375 10.8359 11.196C11.4183 10.9545 11.8516 10.5923 12.1357 10.1094C12.4268 9.62642 12.5724 9.02628 12.5724 8.30895C12.5724 7.58452 12.4268 6.97372 12.1357 6.47656C11.8516 5.9794 11.4148 5.60298 10.8253 5.3473C10.2429 5.08452 9.50781 4.95312 8.62003 4.95312H5.50923V23H0.896307ZM12.679 13.071L18.1016 23H13.0092L7.70384 13.071H12.679ZM26.4923 23.3196C24.8091 23.3196 23.3602 22.9787 22.1457 22.2969C20.9383 21.608 20.0079 20.6349 19.3545 19.3778C18.7011 18.1136 18.3744 16.6186 18.3744 14.8928C18.3744 13.2095 18.7011 11.7322 19.3545 10.4609C20.0079 9.18963 20.9277 8.19886 22.1137 7.48864C23.3069 6.77841 24.7061 6.4233 26.3112 6.4233C27.3907 6.4233 28.3957 6.5973 29.3261 6.94531C30.2636 7.28622 31.0804 7.80114 31.7764 8.49006C32.4795 9.17898 33.0264 10.0455 33.417 11.0895C33.8076 12.1264 34.0029 13.3409 34.0029 14.733V15.9794H20.1855V13.1669H29.7309C29.7309 12.5135 29.5889 11.9347 29.3048 11.4304C29.0207 10.9261 28.6265 10.532 28.1223 10.2479C27.6251 9.95668 27.0463 9.81108 26.3858 9.81108C25.6968 9.81108 25.086 9.97088 24.5534 10.2905C24.0278 10.603 23.6159 11.0256 23.3176 11.5582C23.0193 12.0838 22.8666 12.6697 22.8595 13.3161V15.9901C22.8595 16.7997 23.0086 17.4993 23.3069 18.0888C23.6123 18.6783 24.042 19.1328 24.596 19.4524C25.15 19.772 25.8069 19.9318 26.5669 19.9318C27.0711 19.9318 27.5328 19.8608 27.9518 19.7188C28.3708 19.5767 28.7295 19.3636 29.0278 19.0795C29.3261 18.7955 29.5534 18.4474 29.7096 18.0355L33.9071 18.3125C33.694 19.321 33.2572 20.2017 32.5967 20.9545C31.9433 21.7003 31.0981 22.2827 30.0612 22.7017C29.0314 23.1136 27.8417 23.3196 26.4923 23.3196ZM40.4308 23.3089C39.3868 23.3089 38.4564 23.1278 37.6396 22.7656C36.8228 22.3963 36.1765 21.853 35.7007 21.1357C35.2319 20.4112 34.9975 19.5092 34.9975 18.4297C34.9975 17.5206 35.1645 16.7571 35.4983 16.1392C35.8321 15.5213 36.2866 15.0241 36.8619 14.6477C37.4372 14.2713 38.0906 13.9872 38.8221 13.7955C39.5608 13.6037 40.3349 13.4688 41.1446 13.3906C42.0963 13.2912 42.8633 13.1989 43.4457 13.1136C44.0281 13.0213 44.4507 12.8864 44.7135 12.7088C44.9762 12.5312 45.1076 12.2685 45.1076 11.9205V11.8565C45.1076 11.1818 44.8946 10.6598 44.4684 10.2905C44.0494 9.92116 43.4528 9.73651 42.6787 9.73651C41.8619 9.73651 41.212 9.91761 40.7291 10.2798C40.2461 10.6349 39.9265 11.0824 39.7703 11.6222L35.5728 11.2812C35.7859 10.2869 36.2049 9.42756 36.8299 8.70312C37.4549 7.97159 38.261 7.41051 39.2483 7.01989C40.2426 6.62216 41.3931 6.4233 42.7 6.4233C43.6091 6.4233 44.4791 6.52983 45.31 6.7429C46.1481 6.95597 46.8903 7.28622 47.5366 7.73366C48.19 8.18111 48.7049 8.75639 49.0814 9.45952C49.4578 10.1555 49.646 10.9901 49.646 11.9631V23H45.342V20.7308H45.2142C44.9514 21.2422 44.5998 21.6932 44.1595 22.0838C43.7191 22.4673 43.19 22.7692 42.5721 22.9893C41.9542 23.2024 41.2404 23.3089 40.4308 23.3089ZM41.7305 20.1768C42.3981 20.1768 42.9876 20.0455 43.499 19.7827C44.0103 19.5128 44.4116 19.1506 44.7028 18.696C44.994 18.2415 45.1396 17.7266 45.1396 17.1513V15.4148C44.9975 15.5071 44.8022 15.5923 44.5537 15.6705C44.3122 15.7415 44.0387 15.8089 43.7333 15.8729C43.4279 15.9297 43.1225 15.983 42.8172 16.0327C42.5118 16.0753 42.2348 16.1143 41.9862 16.1499C41.4535 16.228 40.9883 16.3523 40.5906 16.5227C40.1929 16.6932 39.8839 16.924 39.6637 17.2152C39.4436 17.4993 39.3335 17.8544 39.3335 18.2805C39.3335 18.8984 39.5572 19.3707 40.0047 19.6974C40.4592 20.017 41.0345 20.1768 41.7305 20.1768ZM56.5053 1.18182V23H51.9669V1.18182H56.5053ZM67.7405 6.63636V10.0455H57.6411V6.63636H67.7405ZM59.9528 23V5.45383C59.9528 4.26775 60.1837 3.28409 60.6453 2.50284C61.1141 1.72159 61.7533 1.13565 62.5629 0.745027C63.3726 0.354402 64.2923 0.159089 65.3222 0.159089C66.0182 0.159089 66.6538 0.212357 67.2291 0.318892C67.8115 0.425426 68.2447 0.521306 68.5288 0.606534L67.7192 4.01562C67.5416 3.95881 67.3214 3.90554 67.0587 3.85582C66.803 3.80611 66.5402 3.78125 66.2703 3.78125C65.6027 3.78125 65.1375 3.9375 64.8747 4.25C64.6119 4.5554 64.4805 4.98509 64.4805 5.53906V23H59.9528ZM72.1149 29.1364C71.5396 29.1364 70.9998 29.0902 70.4956 28.9979C69.9984 28.9126 69.5865 28.8026 69.2598 28.6676L70.2825 25.2798C70.8152 25.4432 71.2946 25.532 71.7207 25.5462C72.1539 25.5604 72.5268 25.4609 72.8393 25.2479C73.1589 25.0348 73.4181 24.6726 73.617 24.1612L73.8833 23.4688L68.0133 6.63636H72.786L76.1738 18.6534H76.3443L79.764 6.63636H84.5687L78.2086 24.7685C77.9032 25.6491 77.4877 26.4162 76.9622 27.0696C76.4437 27.7301 75.7868 28.2379 74.9913 28.593C74.1958 28.9553 73.237 29.1364 72.1149 29.1364Z" fill="#0C0407"/>
</svg>
