<svg width="48" height="48" viewBox="0 0 48 48" fill="none" xmlns="http://www.w3.org/2000/svg">
<path d="M24 22C26.6522 22 29.1957 23.0536 31.0711 24.9289C32.9464 26.8043 34 29.3478 34 32V44H30V32C30.0001 30.4696 29.4153 28.997 28.3654 27.8835C27.3155 26.77 25.8798 26.0998 24.352 26.01L24 26C22.4696 25.9999 20.997 26.5847 19.8835 27.6346C18.77 28.6845 18.0998 30.1202 18.01 31.648L18 32V44H14V32C14 29.3478 15.0536 26.8043 16.9289 24.9289C18.8043 23.0536 21.3478 22 24 22ZM11 28C11.558 28 12.1 28.066 12.62 28.188C12.278 29.206 12.0755 30.2656 12.018 31.338L12 32V32.172C11.7701 32.0897 11.531 32.036 11.288 32.012L11 32C10.2542 32 9.53522 32.2778 8.98316 32.7792C8.43111 33.2806 8.08559 33.9697 8.014 34.712L8 35V44H4V35C4 33.1435 4.7375 31.363 6.05025 30.0503C7.36301 28.7375 9.14348 28 11 28ZM37 28C38.8565 28 40.637 28.7375 41.9497 30.0503C43.2625 31.363 44 33.1435 44 35V44H40V35C40 34.2542 39.7222 33.5352 39.2208 32.9832C38.7194 32.4311 38.0303 32.0856 37.288 32.014L37 32C36.65 32 36.314 32.06 36 32.17V32C36 30.668 35.784 29.388 35.382 28.192C35.9 28.066 36.442 28 37 28ZM11 16C12.3261 16 13.5979 16.5268 14.5355 17.4645C15.4732 18.4021 16 19.6739 16 21C16 22.3261 15.4732 23.5979 14.5355 24.5355C13.5979 25.4732 12.3261 26 11 26C9.67392 26 8.40215 25.4732 7.46447 24.5355C6.52678 23.5979 6 22.3261 6 21C6 19.6739 6.52678 18.4021 7.46447 17.4645C8.40215 16.5268 9.67392 16 11 16ZM37 16C38.3261 16 39.5979 16.5268 40.5355 17.4645C41.4732 18.4021 42 19.6739 42 21C42 22.3261 41.4732 23.5979 40.5355 24.5355C39.5979 25.4732 38.3261 26 37 26C35.6739 26 34.4021 25.4732 33.4645 24.5355C32.5268 23.5979 32 22.3261 32 21C32 19.6739 32.5268 18.4021 33.4645 17.4645C34.4021 16.5268 35.6739 16 37 16ZM11 20C10.7348 20 10.4804 20.1054 10.2929 20.2929C10.1054 20.4804 10 20.7348 10 21C10 21.2652 10.1054 21.5196 10.2929 21.7071C10.4804 21.8946 10.7348 22 11 22C11.2652 22 11.5196 21.8946 11.7071 21.7071C11.8946 21.5196 12 21.2652 12 21C12 20.7348 11.8946 20.4804 11.7071 20.2929C11.5196 20.1054 11.2652 20 11 20ZM37 20C36.7348 20 36.4804 20.1054 36.2929 20.2929C36.1054 20.4804 36 20.7348 36 21C36 21.2652 36.1054 21.5196 36.2929 21.7071C36.4804 21.8946 36.7348 22 37 22C37.2652 22 37.5196 21.8946 37.7071 21.7071C37.8946 21.5196 38 21.2652 38 21C38 20.7348 37.8946 20.4804 37.7071 20.2929C37.5196 20.1054 37.2652 20 37 20ZM24 4C26.1217 4 28.1566 4.84285 29.6569 6.34315C31.1571 7.84344 32 9.87827 32 12C32 14.1217 31.1571 16.1566 29.6569 17.6569C28.1566 19.1571 26.1217 20 24 20C21.8783 20 19.8434 19.1571 18.3431 17.6569C16.8429 16.1566 16 14.1217 16 12C16 9.87827 16.8429 7.84344 18.3431 6.34315C19.8434 4.84285 21.8783 4 24 4ZM24 8C22.9391 8 21.9217 8.42143 21.1716 9.17157C20.4214 9.92172 20 10.9391 20 12C20 13.0609 20.4214 14.0783 21.1716 14.8284C21.9217 15.5786 22.9391 16 24 16C25.0609 16 26.0783 15.5786 26.8284 14.8284C27.5786 14.0783 28 13.0609 28 12C28 10.9391 27.5786 9.92172 26.8284 9.17157C26.0783 8.42143 25.0609 8 24 8Z" fill="#2F2B43"/>
</svg>
