<svg width="48" height="48" viewBox="0 0 48 48" fill="none" xmlns="http://www.w3.org/2000/svg">
<path d="M19.9464 36.0019H22.0004V26.0019H26.0004V36.0019H28.0544C28.3184 33.5979 29.5444 31.6139 31.5344 29.4479C31.7604 29.2039 33.1984 27.7139 33.3684 27.5019C34.781 25.7372 35.6664 23.6093 35.9226 21.3634C36.1789 19.1176 35.7956 16.845 34.8169 14.8074C33.8382 12.7698 32.3039 11.0501 30.3906 9.84626C28.4774 8.64245 26.263 8.00351 24.0026 8.00303C21.7421 8.00255 19.5275 8.64054 17.6137 9.84353C15.7 11.0465 14.1649 12.7656 13.1853 14.8028C12.2058 16.8399 11.8215 19.1124 12.0768 21.3584C12.3321 23.6044 13.2166 25.7326 14.6284 27.4979C14.8004 27.7119 16.2424 29.2039 16.4644 29.4459C18.4564 31.6139 19.6824 33.5979 19.9464 36.0019ZM20.0004 40.0019V42.0019H28.0004V40.0019H20.0004ZM11.5084 30.0019C9.62479 27.6485 8.4443 24.8108 8.10294 21.8158C7.76157 18.8208 8.27321 15.7903 9.57892 13.0734C10.8846 10.3565 12.9313 8.06365 15.4831 6.45907C18.035 4.85449 20.9882 4.00342 24.0026 4.00391C27.017 4.00439 29.9699 4.8564 32.5212 6.4618C35.0726 8.06719 37.1185 10.3607 38.4233 13.078C39.7282 15.7954 40.2388 18.826 39.8965 21.8209C39.5542 24.8158 38.3728 27.6531 36.4884 30.0059C35.2484 31.5499 32.0004 34.0019 32.0004 37.0019V42.0019C32.0004 43.0628 31.579 44.0802 30.8288 44.8303C30.0787 45.5805 29.0613 46.0019 28.0004 46.0019H20.0004C18.9395 46.0019 17.9221 45.5805 17.172 44.8303C16.4218 44.0802 16.0004 43.0628 16.0004 42.0019V37.0019C16.0004 34.0019 12.7504 31.5499 11.5084 30.0019Z" fill="#2F2B43"/>
</svg>
