<svg width="48" height="48" viewBox="0 0 48 48" fill="none" xmlns="http://www.w3.org/2000/svg">
<path d="M24 8C19.7565 8 15.6869 9.68571 12.6863 12.6863C9.68571 15.6869 8 19.7565 8 24H14C15.0609 24 16.0783 24.4214 16.8284 25.1716C17.5786 25.9217 18 26.9391 18 28V38C18 39.0609 17.5786 40.0783 16.8284 40.8284C16.0783 41.5786 15.0609 42 14 42H8C6.93913 42 5.92172 41.5786 5.17157 40.8284C4.42143 40.0783 4 39.0609 4 38V24C4 12.954 12.954 4 24 4C35.046 4 44 12.954 44 24V38C44 39.0609 43.5786 40.0783 42.8284 40.8284C42.0783 41.5786 41.0609 42 40 42H34C32.9391 42 31.9217 41.5786 31.1716 40.8284C30.4214 40.0783 30 39.0609 30 38V28C30 26.9391 30.4214 25.9217 31.1716 25.1716C31.9217 24.4214 32.9391 24 34 24H40C40 19.7565 38.3143 15.6869 35.3137 12.6863C32.3131 9.68571 28.2435 8 24 8ZM8 28V38H14V28H8ZM34 28V38H40V28H34Z" fill="#2F2B43"/>
</svg>
