<svg width="48" height="48" viewBox="0 0 48 48" fill="none" xmlns="http://www.w3.org/2000/svg">
<path d="M12.232 40.174C9.68006 38.3197 7.60364 35.8873 6.17278 33.076C4.74193 30.2647 3.99735 27.1545 4.00001 24C4.00001 12.954 12.954 4 24 4C35.046 4 44 12.954 44 24C44.0027 27.1545 43.2581 30.2647 41.8272 33.076C40.3964 35.8873 38.32 38.3197 35.768 40.174L33.738 36.696C36.3908 34.6612 38.3395 31.8464 39.3105 28.6472C40.2814 25.448 40.2257 22.0249 39.1513 18.8589C38.0769 15.693 36.0377 12.9431 33.3202 10.9955C30.6027 9.04799 27.3433 8.00067 24 8.00067C20.6567 8.00067 17.3973 9.04799 14.6798 10.9955C11.9623 12.9431 9.92309 15.693 8.84868 18.8589C7.77428 22.0249 7.71863 25.448 8.68956 28.6472C9.66049 31.8464 11.6092 34.6612 14.262 36.696L12.232 40.174ZM16.3 33.204C14.4101 31.6228 13.0527 29.4982 12.4123 27.1187C11.7719 24.7393 11.8796 22.2203 12.7207 19.9042C13.5618 17.5881 15.0955 15.587 17.1135 14.1729C19.1315 12.7588 21.5359 12.0002 24 12.0002C26.4641 12.0002 28.8685 12.7588 30.8865 14.1729C32.9045 15.587 34.4382 17.5881 35.2793 19.9042C36.1204 22.2203 36.2281 24.7393 35.5877 27.1187C34.9473 29.4982 33.59 31.6228 31.7 33.204L29.64 29.672C30.7636 28.5551 31.5302 27.1297 31.8428 25.5766C32.1553 24.0234 31.9997 22.4125 31.3956 20.9479C30.7915 19.4833 29.7661 18.231 28.4495 17.3499C27.1329 16.4687 25.5843 15.9983 24 15.9983C22.4157 15.9983 20.8671 16.4687 19.5505 17.3499C18.2339 18.231 17.2085 19.4833 16.6044 20.9479C16.0003 22.4125 15.8447 24.0234 16.1572 25.5766C16.4698 27.1297 17.2364 28.5551 18.36 29.672L16.3 33.204ZM22 26H26V44H22V26Z" fill="#2F2B43"/>
</svg>
